<svg width="48" height="48" viewBox="0 0 48 48" fill="none" xmlns="http://www.w3.org/2000/svg">
<g clip-path="url(#clip0_1908_214)">
<path d="M2.70002 0H1.65002V48H2.70002V0Z" fill="#2C2A2D"/>
<path d="M6.75001 0H5.70001V48H6.75001V0Z" fill="#2C2A2D"/>
<mask id="mask0_1908_214" style="mask-type:luminance" maskUnits="userSpaceOnUse" x="0" y="0" width="48" height="48">
<path d="M48 0H0V48H48V0Z" fill="white"/>
</mask>
<g mask="url(#mask0_1908_214)">
<path d="M10.65 0H9.59998V19.5C9.89998 18.6 10.2 17.7 10.65 16.8V0Z" fill="#2C2A2D"/>
</g>
<mask id="mask1_1908_214" style="mask-type:luminance" maskUnits="userSpaceOnUse" x="0" y="0" width="48" height="48">
<path d="M48 0H0V48H48V0Z" fill="white"/>
</mask>
<g mask="url(#mask1_1908_214)">
<path d="M9.59998 48H10.65V30.9C10.2 30 9.89998 29.1 9.59998 28.2V48Z" fill="#2C2A2D"/>
</g>
<mask id="mask2_1908_214" style="mask-type:luminance" maskUnits="userSpaceOnUse" x="0" y="0" width="48" height="48">
<path d="M48 0H0V48H48V0Z" fill="white"/>
</mask>
<g mask="url(#mask2_1908_214)">
<path d="M13.5 48H14.55V35.85C14.1 35.55 13.8 35.25 13.5 34.95V48Z" fill="#2C2A2D"/>
</g>
<mask id="mask3_1908_214" style="mask-type:luminance" maskUnits="userSpaceOnUse" x="0" y="0" width="48" height="48">
<path d="M48 0H0V48H48V0Z" fill="white"/>
</mask>
<g mask="url(#mask3_1908_214)">
<path d="M14.7 0H13.5V12.9C13.95 12.6 14.25 12.3 14.7 12V0Z" fill="#2C2A2D"/>
</g>
<mask id="mask4_1908_214" style="mask-type:luminance" maskUnits="userSpaceOnUse" x="0" y="0" width="48" height="48">
<path d="M48 0H0V48H48V0Z" fill="white"/>
</mask>
<g mask="url(#mask4_1908_214)">
<path d="M17.55 48H18.6V38.25C18.3 38.1 17.85 37.95 17.55 37.8V48Z" fill="#2C2A2D"/>
</g>
<mask id="mask5_1908_214" style="mask-type:luminance" maskUnits="userSpaceOnUse" x="0" y="0" width="48" height="48">
<path d="M48 0H0V48H48V0Z" fill="white"/>
</mask>
<g mask="url(#mask5_1908_214)">
<path d="M18.6 0H17.55V10.05C17.85 9.9 18.3 9.75 18.6 9.6V0Z" fill="#2C2A2D"/>
</g>
<mask id="mask6_1908_214" style="mask-type:luminance" maskUnits="userSpaceOnUse" x="0" y="0" width="48" height="48">
<path d="M48 0H0V48H48V0Z" fill="white"/>
</mask>
<g mask="url(#mask6_1908_214)">
<path d="M22.5 0H21.45V8.7C21.75 8.7 22.2 8.55 22.5 8.55V0Z" fill="#2C2A2D"/>
</g>
<mask id="mask7_1908_214" style="mask-type:luminance" maskUnits="userSpaceOnUse" x="0" y="0" width="48" height="48">
<path d="M48 0H0V48H48V0Z" fill="white"/>
</mask>
<g mask="url(#mask7_1908_214)">
<path d="M21.45 48H22.5V39.15C22.2 39.15 21.75 39 21.45 39V48Z" fill="#2C2A2D"/>
</g>
<mask id="mask8_1908_214" style="mask-type:luminance" maskUnits="userSpaceOnUse" x="0" y="0" width="48" height="48">
<path d="M48 0H0V48H48V0Z" fill="white"/>
</mask>
<g mask="url(#mask8_1908_214)">
<path d="M26.55 0H25.5V8.55C25.8 8.55 26.25 8.55 26.55 8.7V0Z" fill="#2C2A2D"/>
</g>
<mask id="mask9_1908_214" style="mask-type:luminance" maskUnits="userSpaceOnUse" x="0" y="0" width="48" height="48">
<path d="M48 0H0V48H48V0Z" fill="white"/>
</mask>
<g mask="url(#mask9_1908_214)">
<path d="M25.5 48H26.55V39.15C26.25 39.15 25.8 39.3 25.5 39.3V48Z" fill="#2C2A2D"/>
</g>
<mask id="mask10_1908_214" style="mask-type:luminance" maskUnits="userSpaceOnUse" x="0" y="0" width="48" height="48">
<path d="M48 0H0V48H48V0Z" fill="white"/>
</mask>
<g mask="url(#mask10_1908_214)">
<path d="M29.4 48H30.45V38.1C30.15 38.25 29.7 38.4 29.4 38.55V48Z" fill="#2C2A2D"/>
</g>
<mask id="mask11_1908_214" style="mask-type:luminance" maskUnits="userSpaceOnUse" x="0" y="0" width="48" height="48">
<path d="M48 0H0V48H48V0Z" fill="white"/>
</mask>
<g mask="url(#mask11_1908_214)">
<path d="M30.45 0H29.4V9.3C29.7 9.45 30.15 9.6 30.45 9.75V0Z" fill="#2C2A2D"/>
</g>
<mask id="mask12_1908_214" style="mask-type:luminance" maskUnits="userSpaceOnUse" x="0" y="0" width="48" height="48">
<path d="M48 0H0V48H48V0Z" fill="white"/>
</mask>
<g mask="url(#mask12_1908_214)">
<path d="M34.5 0H33.45V11.4C33.75 11.7 34.05 12 34.5 12.3V0Z" fill="#2C2A2D"/>
</g>
<mask id="mask13_1908_214" style="mask-type:luminance" maskUnits="userSpaceOnUse" x="0" y="0" width="48" height="48">
<path d="M48 0H0V48H48V0Z" fill="white"/>
</mask>
<g mask="url(#mask13_1908_214)">
<path d="M33.3 48H34.5V35.55C34.2 35.85 33.75 36.15 33.45 36.45V48H33.3Z" fill="#2C2A2D"/>
</g>
<mask id="mask14_1908_214" style="mask-type:luminance" maskUnits="userSpaceOnUse" x="0" y="0" width="48" height="48">
<path d="M48 0H0V48H48V0Z" fill="white"/>
</mask>
<g mask="url(#mask14_1908_214)">
<path d="M38.4 0H37.35V15.45C37.8 16.05 38.1 16.8 38.4 17.4V0Z" fill="#2C2A2D"/>
</g>
<mask id="mask15_1908_214" style="mask-type:luminance" maskUnits="userSpaceOnUse" x="0" y="0" width="48" height="48">
<path d="M48 0H0V48H48V0Z" fill="white"/>
</mask>
<g mask="url(#mask15_1908_214)">
<path d="M37.35 48H38.4V30.3C38.1 31.05 37.65 31.65 37.35 32.25V48Z" fill="#2C2A2D"/>
</g>
<mask id="mask16_1908_214" style="mask-type:luminance" maskUnits="userSpaceOnUse" x="0" y="0" width="48" height="48">
<path d="M48 0H0V48H48V0Z" fill="white"/>
</mask>
<g mask="url(#mask16_1908_214)">
<path d="M42.3 0H41.25V48H42.3V0Z" fill="#2C2A2D"/>
</g>
<mask id="mask17_1908_214" style="mask-type:luminance" maskUnits="userSpaceOnUse" x="0" y="0" width="48" height="48">
<path d="M48 0H0V48H48V0Z" fill="white"/>
</mask>
<g mask="url(#mask17_1908_214)">
<path d="M46.2 0H45.15V48H46.2V0Z" fill="#2C2A2D"/>
</g>
</g>
<defs>
<clipPath id="clip0_1908_214">
<rect width="48" height="48" fill="white"/>
</clipPath>
</defs>
</svg>
